<svg width="16" height="16" viewBox="0 0 16 16" fill="none" xmlns="http://www.w3.org/2000/svg">
<g clip-path="url(#clip0_141_1062)">
<path d="M6.06006 5.99997C6.21679 5.55442 6.52616 5.17871 6.93336 4.93939C7.34056 4.70008 7.81932 4.6126 8.28484 4.69245C8.75036 4.7723 9.1726 5.01432 9.47678 5.37566C9.78095 5.73699 9.94743 6.19432 9.94673 6.66664C9.94673 7.99997 7.94673 8.66664 7.94673 8.66664M8.00016 11.3333H8.00683M14.6668 7.99992C14.6668 11.6818 11.6821 14.6666 8.00016 14.6666C4.31826 14.6666 1.3335 11.6818 1.3335 7.99992C1.3335 4.31802 4.31826 1.33325 8.00016 1.33325C11.6821 1.33325 14.6668 4.31802 14.6668 7.99992Z" stroke="#A1A1AA" style="stroke:#A1A1AA;stroke:color(display-p3 0.6314 0.6314 0.6667);stroke-opacity:1;" stroke-width="1.5" stroke-linecap="round" stroke-linejoin="round"/>
</g>
<defs>
<clipPath id="clip0_141_1062">
<rect width="16" height="16" fill="white" style="fill:white;fill-opacity:1;"/>
</clipPath>
</defs>
</svg>
