<svg width="73" height="32" viewBox="0 0 73 32" fill="none" xmlns="http://www.w3.org/2000/svg">
<path d="M0 16C0 7.16344 7.16344 0 16 0H57C65.8366 0 73 7.16344 73 16C73 24.8366 65.8366 32 57 32H16C7.16344 32 0 24.8366 0 16Z" fill="#27272A" style="fill:#27272A;fill:color(display-p3 0.1529 0.1529 0.1647);fill-opacity:1;"/>
<path d="M25.18 21.196C22.338 21.196 20.504 19.012 20.504 16.002C20.504 12.978 22.352 10.794 25.194 10.794C27.7 10.794 29.254 12.39 29.492 14.392H27.882C27.7 13.412 27.084 12.124 25.166 12.124C22.954 12.124 22.114 14 22.114 15.988C22.114 17.99 22.954 19.866 25.166 19.866C27.098 19.866 27.784 18.578 27.882 17.36H29.492C29.268 19.586 27.7 21.196 25.18 21.196ZM30.6411 21V10.99H32.0131V21H30.6411ZM36.7172 21.21C34.4492 21.21 33.1892 19.6 33.1892 17.416C33.1892 15.176 34.5332 13.636 36.7172 13.636C38.8872 13.636 40.1052 15.064 40.1052 17.276C40.1052 17.472 40.1052 17.682 40.0912 17.794H34.6032C34.6312 18.984 35.3312 20.09 36.7452 20.09C38.0052 20.09 38.4952 19.278 38.6212 18.802H40.0212C39.6432 20.174 38.5932 21.21 36.7172 21.21ZM34.6032 16.716H38.6772C38.6772 15.596 37.8932 14.756 36.6752 14.756C35.5272 14.756 34.6872 15.54 34.6032 16.716ZM43.2381 21.196C41.8101 21.196 40.9001 20.37 40.9001 19.152C40.9001 17.556 42.1041 17.08 43.8821 16.744C45.0021 16.534 45.6881 16.394 45.6881 15.694C45.6881 15.176 45.3801 14.742 44.3301 14.742C43.0841 14.742 42.7061 15.134 42.6361 16.086H41.2361C41.3061 14.714 42.2021 13.636 44.3861 13.636C45.8561 13.636 47.0321 14.252 47.0321 16.1V19.376C47.0321 19.894 47.1021 20.16 47.3681 20.16C47.4101 20.16 47.4521 20.16 47.5361 20.146V20.986C47.2981 21.042 47.0601 21.07 46.8361 21.07C46.1501 21.07 45.7861 20.804 45.7021 19.992H45.6741C45.2121 20.734 44.4001 21.196 43.2381 21.196ZM42.3281 19.054C42.3281 19.726 42.6921 20.09 43.5461 20.09C44.7781 20.09 45.6881 19.46 45.6881 18.214V17.192C45.4641 17.402 44.8481 17.556 44.1201 17.71C42.8601 17.962 42.3281 18.312 42.3281 19.054ZM50.0736 17.304V21H48.7016V13.86H50.0736V15.218H50.1016C50.4796 14.322 51.0536 13.692 52.0196 13.692C52.2716 13.692 52.4676 13.706 52.6776 13.734V15.05C52.5096 15.022 52.3836 15.008 52.2156 15.008C50.9696 15.008 50.0736 15.946 50.0736 17.304Z" fill="#FAFAFA" style="fill:#FAFAFA;fill:color(display-p3 0.9804 0.9804 0.9804);fill-opacity:1;"/>
</svg>
