<svg width="32" height="32" viewBox="0 0 32 32" fill="none" xmlns="http://www.w3.org/2000/svg">
<rect width="32" height="32" rx="6" fill="#2A1859" style="fill:#2A1859;fill:color(display-p3 0.1634 0.0960 0.3477);fill-opacity:1;"/>
<path d="M15.9997 22.1667C19.4054 22.1667 22.1663 19.4058 22.1663 16C22.1663 12.5943 19.4054 9.83337 15.9997 9.83337M15.9997 22.1667C12.5939 22.1667 9.83301 19.4058 9.83301 16C9.83301 12.5943 12.5939 9.83337 15.9997 9.83337M15.9997 22.1667C14.4349 22.1667 13.1663 19.4058 13.1663 16C13.1663 12.5943 14.4349 9.83337 15.9997 9.83337M15.9997 22.1667C17.5645 22.1667 18.833 19.4058 18.833 16C18.833 12.5943 17.5645 9.83337 15.9997 9.83337M21.9997 16H9.99967" stroke="#8760F2" style="stroke:#8760F2;stroke:color(display-p3 0.5294 0.3765 0.9490);stroke-opacity:1;" stroke-width="1.2" stroke-linecap="round" stroke-linejoin="round"/>
</svg>
