<svg width="20" height="20" viewBox="0 0 20 20" fill="none" xmlns="http://www.w3.org/2000/svg">
<rect x="-0.00012207" width="20" height="20" rx="6" fill="#71717A" fill-opacity="0.1" style="fill:#71717A;fill:color(display-p3 0.4431 0.4431 0.4784);fill-opacity:0.1;"/>
<path d="M9.99992 16.1666C13.4057 16.1666 16.1666 13.4057 16.1666 9.99992C16.1666 6.59417 13.4057 3.83325 9.99992 3.83325M9.99992 16.1666C6.59417 16.1666 3.83325 13.4057 3.83325 9.99992C3.83325 6.59417 6.59417 3.83325 9.99992 3.83325M9.99992 16.1666C8.43511 16.1666 7.16659 13.4057 7.16659 9.99992C7.16659 6.59417 8.43511 3.83325 9.99992 3.83325M9.99992 16.1666C11.5647 16.1666 12.8333 13.4057 12.8333 9.99992C12.8333 6.59417 11.5647 3.83325 9.99992 3.83325M15.9999 9.99992H3.99992" stroke="#A1A1AA" style="stroke:#A1A1AA;stroke:color(display-p3 0.6314 0.6314 0.6667);stroke-opacity:1;" stroke-width="1.2" stroke-linecap="round" stroke-linejoin="round"/>
</svg>
