<svg width="24" height="24" viewBox="0 0 24 24" fill="none" xmlns="http://www.w3.org/2000/svg">
<g id="SBC">
<path id="Vector" d="M12 24C18.6274 24 24 18.6274 24 12C24 5.37267 18.6274 0.00012207 12 0.00012207C5.37258 0.00012207 0 5.37267 0 12C0 18.6274 5.37258 24 12 24Z" fill="#6938EF" style="fill:#6938EF;fill:color(display-p3 0.4118 0.2196 0.9373);fill-opacity:1;"/>
<path id="Vector_2" d="M12 22.5C17.799 22.5 22.5 17.799 22.5 12.0001C22.5 6.2011 17.799 1.50012 12 1.50012C6.20101 1.50012 1.5 6.2011 1.5 12.0001C1.5 17.799 6.20101 22.5 12 22.5Z" fill="#8760F2" style="fill:#8760F2;fill:color(display-p3 0.5294 0.3765 0.9490);fill-opacity:1;"/>
<path id="Vector_3" d="M12 21C16.9706 21 21 16.9706 21 12.0001C21 7.02953 16.9706 3.00012 12 3.00012C7.02944 3.00012 3 7.02953 3 12.0001C3 16.9706 7.02944 21 12 21Z" fill="#A588F5" style="fill:#A588F5;fill:color(display-p3 0.6471 0.5333 0.9608);fill-opacity:1;"/>
<path id="Vector_4" d="M12 19.5C16.1421 19.5 19.5 16.1422 19.5 12.0001C19.5 7.85796 16.1421 4.50012 12 4.50012C7.85786 4.50012 4.5 7.85796 4.5 12.0001C4.5 16.1422 7.85786 19.5 12 19.5Z" fill="#C3AFF9" style="fill:#C3AFF9;fill:color(display-p3 0.7647 0.6863 0.9765);fill-opacity:1;"/>
<path id="Vector_5" d="M12 18C15.3137 18 18 15.3138 18 12.0001C18 8.6864 15.3137 6.00012 12 6.00012C8.68629 6.00012 6 8.6864 6 12.0001C6 15.3138 8.68629 18 12 18Z" fill="#E1D7FC" style="fill:#E1D7FC;fill:color(display-p3 0.8824 0.8431 0.9882);fill-opacity:1;"/>
<path id="Vector_6" d="M12 16.5001C14.4853 16.5001 16.5 14.4854 16.5 12.0001C16.5 9.51483 14.4853 7.50012 12 7.50012C9.51472 7.50012 7.5 9.51483 7.5 12.0001C7.5 14.4854 9.51472 16.5001 12 16.5001Z" fill="white" style="fill:white;fill-opacity:1;"/>
<path id="Vector_7" d="M12 15.0001C13.6569 15.0001 15 13.6569 15 12.0001C15 10.3433 13.6569 9.00012 12 9.00012C10.3431 9.00012 9 10.3433 9 12.0001C9 13.6569 10.3431 15.0001 12 15.0001Z" fill="#6938EF" style="fill:#6938EF;fill:color(display-p3 0.4118 0.2196 0.9373);fill-opacity:1;"/>
</g>
</svg>
