<svg width="20" height="20" viewBox="0 0 20 20" fill="none" xmlns="http://www.w3.org/2000/svg">
<rect width="20" height="20" rx="6" fill="#2A1859" style="fill:#2A1859;fill:color(display-p3 0.1634 0.0960 0.3477);fill-opacity:1;"/>
<path d="M9.99967 16.1667C13.4054 16.1667 16.1663 13.4058 16.1663 10C16.1663 6.59429 13.4054 3.83337 9.99967 3.83337M9.99967 16.1667C6.59392 16.1667 3.83301 13.4058 3.83301 10C3.83301 6.59429 6.59392 3.83337 9.99967 3.83337M9.99967 16.1667C8.43487 16.1667 7.16634 13.4058 7.16634 10C7.16634 6.59429 8.43487 3.83337 9.99967 3.83337M9.99967 16.1667C11.5645 16.1667 12.833 13.4058 12.833 10C12.833 6.59429 11.5645 3.83337 9.99967 3.83337M15.9997 10H3.99967" stroke="#8760F2" style="stroke:#8760F2;stroke:color(display-p3 0.5294 0.3765 0.9490);stroke-opacity:1;" stroke-width="1.2" stroke-linecap="round" stroke-linejoin="round"/>
</svg>
