<svg width="24" height="24" viewBox="0 0 24 24" fill="none" xmlns="http://www.w3.org/2000/svg">
<g clip-path="url(#clip0_377_2042)">
<rect width="24" height="24" fill="white" style="fill:white;fill-opacity:1;"/>
<path d="M12 20.9999C16.9706 20.9999 21 16.9705 21 11.9999C21 7.0294 16.9706 2.99998 12 2.99998C7.02944 2.99998 3 7.0294 3 11.9999C3 16.9705 7.02944 20.9999 12 20.9999Z" fill="#6938EF" style="fill:#6938EF;fill:color(display-p3 0.4118 0.2196 0.9373);fill-opacity:1;"/>
<path d="M12 19.8749C16.3492 19.8749 19.875 16.3491 19.875 11.9999C19.875 7.65072 16.3492 4.12498 12 4.12498C7.65076 4.12498 4.125 7.65072 4.125 11.9999C4.125 16.3491 7.65076 19.8749 12 19.8749Z" fill="#8760F2" style="fill:#8760F2;fill:color(display-p3 0.5294 0.3765 0.9490);fill-opacity:1;"/>
<path d="M12 18.7499C15.7279 18.7499 18.75 15.7278 18.75 11.9999C18.75 8.27204 15.7279 5.24998 12 5.24998C8.27208 5.24998 5.25 8.27204 5.25 11.9999C5.25 15.7278 8.27208 18.7499 12 18.7499Z" fill="#A588F5" style="fill:#A588F5;fill:color(display-p3 0.6471 0.5333 0.9608);fill-opacity:1;"/>
<path d="M12 17.6249C15.1066 17.6249 17.625 15.1065 17.625 11.9999C17.625 8.89337 15.1066 6.37498 12 6.37498C8.8934 6.37498 6.375 8.89337 6.375 11.9999C6.375 15.1065 8.8934 17.6249 12 17.6249Z" fill="#C3AFF9" style="fill:#C3AFF9;fill:color(display-p3 0.7647 0.6863 0.9765);fill-opacity:1;"/>
<path d="M12 16.4999C14.4853 16.4999 16.5 14.4852 16.5 12C16.5 9.51469 14.4853 7.49998 12 7.49998C9.51472 7.49998 7.5 9.51469 7.5 12C7.5 14.4852 9.51472 16.4999 12 16.4999Z" fill="#E1D7FC" style="fill:#E1D7FC;fill:color(display-p3 0.8824 0.8431 0.9882);fill-opacity:1;"/>
<path d="M12 15.3749C13.864 15.3749 15.375 13.8639 15.375 12C15.375 10.136 13.864 8.62498 12 8.62498C10.136 8.62498 8.625 10.136 8.625 12C8.625 13.8639 10.136 15.3749 12 15.3749Z" fill="white" style="fill:white;fill-opacity:1;"/>
<path d="M12 14.25C13.2426 14.25 14.25 13.2426 14.25 12C14.25 10.7573 13.2426 9.74998 12 9.74998C10.7574 9.74998 9.75 10.7573 9.75 12C9.75 13.2426 10.7574 14.25 12 14.25Z" fill="#6938EF" style="fill:#6938EF;fill:color(display-p3 0.4118 0.2196 0.9373);fill-opacity:1;"/>
</g>
<defs>
<clipPath id="clip0_377_2042">
<rect width="24" height="24" rx="12" fill="white" style="fill:white;fill-opacity:1;"/>
</clipPath>
</defs>
</svg>
