<svg width="81" height="32" viewBox="0 0 81 32" fill="none" xmlns="http://www.w3.org/2000/svg">
<rect x="0.5" y="0.5" width="80" height="31" rx="15.5" fill="#27272A" style="fill:#27272A;fill:color(display-p3 0.1529 0.1529 0.1647);fill-opacity:1;"/>
<rect x="0.5" y="0.5" width="80" height="31" rx="15.5" stroke="#3F3F46" style="stroke:#3F3F46;stroke:color(display-p3 0.2471 0.2471 0.2745);stroke-opacity:1;"/>
<g clip-path="url(#clip0_131_2524)">
<g clip-path="url(#clip1_131_2524)">
<rect width="24" height="24" transform="translate(4 4)" fill="white" style="fill:white;fill-opacity:1;"/>
<path d="M16 27.9998C22.6274 27.9998 28 22.6273 28 15.9999C28 9.37255 22.6274 4 16 4C9.37258 4 4 9.37255 4 15.9999C4 22.6273 9.37258 27.9998 16 27.9998Z" fill="#6938EF" style="fill:#6938EF;fill:color(display-p3 0.4118 0.2196 0.9373);fill-opacity:1;"/>
<path d="M16 26.4999C21.799 26.4999 26.5 21.7989 26.5 15.9999C26.5 10.201 21.799 5.5 16 5.5C10.201 5.5 5.5 10.201 5.5 15.9999C5.5 21.7989 10.201 26.4999 16 26.4999Z" fill="#8760F2" style="fill:#8760F2;fill:color(display-p3 0.5294 0.3765 0.9490);fill-opacity:1;"/>
<path d="M16 24.9999C20.9706 24.9999 25 20.9705 25 15.9999C25 11.0294 20.9706 7 16 7C11.0294 7 7 11.0294 7 15.9999C7 20.9705 11.0294 24.9999 16 24.9999Z" fill="#A588F5" style="fill:#A588F5;fill:color(display-p3 0.6471 0.5333 0.9608);fill-opacity:1;"/>
<path d="M16 23.4999C20.1421 23.4999 23.5 20.1421 23.5 16C23.5 11.8578 20.1421 8.5 16 8.5C11.8579 8.5 8.5 11.8578 8.5 16C8.5 20.1421 11.8579 23.4999 16 23.4999Z" fill="#C3AFF9" style="fill:#C3AFF9;fill:color(display-p3 0.7647 0.6863 0.9765);fill-opacity:1;"/>
<path d="M16 21.9999C19.3137 21.9999 22 19.3136 22 16C22 12.6863 19.3137 10 16 10C12.6863 10 10 12.6863 10 16C10 19.3136 12.6863 21.9999 16 21.9999Z" fill="#E1D7FC" style="fill:#E1D7FC;fill:color(display-p3 0.8824 0.8431 0.9882);fill-opacity:1;"/>
<path d="M16 20.4999C18.4853 20.4999 20.5 18.4852 20.5 16C20.5 13.5147 18.4853 11.5 16 11.5C13.5147 11.5 11.5 13.5147 11.5 16C11.5 18.4852 13.5147 20.4999 16 20.4999Z" fill="white" style="fill:white;fill-opacity:1;"/>
<path d="M16 19C17.6569 19 19 17.6568 19 16C19 14.3431 17.6569 13 16 13C14.3431 13 13 14.3431 13 16C13 17.6568 14.3431 19 16 19Z" fill="#6938EF" style="fill:#6938EF;fill:color(display-p3 0.4118 0.2196 0.9373);fill-opacity:1;"/>
</g>
</g>
<rect x="4.5" y="4.5" width="23" height="23" rx="11.5" stroke="white" stroke-opacity="0.08" style="stroke:white;stroke-opacity:0.08;"/>
<path d="M40.76 21.196C38.226 21.196 36.448 19.88 36.336 17.626H37.932C38.044 18.97 38.842 19.88 40.718 19.88C42.328 19.88 42.818 19.18 42.818 18.27C42.818 16.996 41.838 16.814 40.018 16.352C38.45 15.932 36.728 15.428 36.728 13.524C36.728 11.788 38.072 10.794 40.228 10.794C42.51 10.794 43.994 11.956 44.148 13.972H42.552C42.384 12.768 41.698 12.11 40.242 12.11C38.982 12.11 38.338 12.572 38.338 13.44C38.338 14.56 39.388 14.798 40.676 15.12C42.608 15.61 44.428 16.072 44.428 18.186C44.428 19.908 43.266 21.196 40.76 21.196ZM45.8397 21V10.99H50.0537C52.1117 10.99 53.3157 11.914 53.3157 13.51C53.3157 14.742 52.5877 15.316 51.7617 15.596V15.624C52.8117 15.806 53.7077 16.576 53.7077 18.074C53.7077 19.992 52.3777 21 50.3057 21H45.8397ZM47.3797 19.67H50.1937C51.6777 19.67 52.0977 18.956 52.0977 18.018C52.0977 16.968 51.4537 16.366 50.4037 16.366H47.3797V19.67ZM47.3797 15.148H50.0117C51.2717 15.148 51.7057 14.63 51.7057 13.734C51.7057 12.852 51.1737 12.32 50.1237 12.32H47.3797V15.148ZM59.3636 21.196C56.5216 21.196 54.6876 19.012 54.6876 16.002C54.6876 12.978 56.5356 10.794 59.3776 10.794C61.8836 10.794 63.4376 12.39 63.6756 14.392H62.0656C61.8836 13.412 61.2676 12.124 59.3496 12.124C57.1376 12.124 56.2976 14 56.2976 15.988C56.2976 17.99 57.1376 19.866 59.3496 19.866C61.2816 19.866 61.9676 18.578 62.0656 17.36H63.6756C63.4516 19.586 61.8836 21.196 59.3636 21.196Z" fill="#FAFAFA" style="fill:#FAFAFA;fill:color(display-p3 0.9804 0.9804 0.9804);fill-opacity:1;"/>
<defs>
<clipPath id="clip0_131_2524">
<rect x="4" y="4" width="24" height="24" rx="12" fill="white" style="fill:white;fill-opacity:1;"/>
</clipPath>
<clipPath id="clip1_131_2524">
<rect width="24" height="24" fill="white" style="fill:white;fill-opacity:1;" transform="translate(4 4)"/>
</clipPath>
</defs>
</svg>
