<svg width="32" height="32" viewBox="0 0 32 32" fill="none" xmlns="http://www.w3.org/2000/svg">
<path d="M0.5 16C0.5 7.43959 7.43959 0.5 16 0.5C24.5604 0.5 31.5 7.43959 31.5 16C31.5 24.5604 24.5604 31.5 16 31.5C7.43959 31.5 0.5 24.5604 0.5 16Z" fill="#18181B" style="fill:#18181B;fill:color(display-p3 0.0941 0.0941 0.1059);fill-opacity:1;"/>
<path d="M0.5 16C0.5 7.43959 7.43959 0.5 16 0.5C24.5604 0.5 31.5 7.43959 31.5 16C31.5 24.5604 24.5604 31.5 16 31.5C7.43959 31.5 0.5 24.5604 0.5 16Z" stroke="#27272A" style="stroke:#27272A;stroke:color(display-p3 0.1529 0.1529 0.1647);stroke-opacity:1;"/>
<path d="M15.9999 11.3333V20.6666M15.9999 20.6666L20.6666 15.9999M15.9999 20.6666L11.3333 15.9999" stroke="#FAFAFA" style="stroke:#FAFAFA;stroke:color(display-p3 0.9804 0.9804 0.9804);stroke-opacity:1;" stroke-width="1.33" stroke-linecap="round" stroke-linejoin="round"/>
</svg>
