<svg width="16" height="16" viewBox="0 0 16 16" fill="none" xmlns="http://www.w3.org/2000/svg">
<g clip-path="url(#clip0_117_2379)">
<rect width="16" height="16" fill="#4473C5" style="fill:#4473C5;fill:color(display-p3 0.2667 0.4510 0.7725);fill-opacity:1;"/>
<path d="M6.48911 3.25949C6.55055 3.24157 6.62192 3.24797 6.67344 3.28829C6.72432 3.32712 6.74886 3.39197 6.74939 3.45459C6.75035 3.57961 6.74928 3.70474 6.74992 3.82976C6.75504 3.95531 6.67152 4.08204 6.55055 4.12012C5.87329 4.37102 5.26514 4.80337 4.80239 5.35774C4.36023 5.88535 4.0511 6.524 3.91551 7.19924C3.75156 8.00601 3.83242 8.86121 4.14998 9.62115C4.40002 10.224 4.79471 10.7655 5.29032 11.19C5.66261 11.5094 6.09132 11.7634 6.55141 11.9338C6.67216 11.9722 6.75526 12.0991 6.74992 12.2244C6.74939 12.3492 6.75035 12.4739 6.7495 12.5987C6.74896 12.6612 6.72454 12.7263 6.67365 12.7651C6.62277 12.8051 6.55237 12.8119 6.49135 12.7947C5.51838 12.4902 4.6474 11.8749 4.0288 11.0651C3.58974 10.4932 3.27676 9.825 3.12016 9.12106C2.92666 8.25488 2.96708 7.33717 3.23985 6.49232C3.42738 5.90967 3.72404 5.36244 4.10902 4.88657C4.72079 4.12748 5.55849 3.55166 6.48911 3.25949Z" fill="white" style="fill:white;fill-opacity:1;"/>
<path d="M9.38037 3.25991C9.42486 3.24498 9.47361 3.24807 9.51809 3.26151C10.2053 3.47945 10.843 3.85024 11.3743 4.3371C12.0597 4.96252 12.5665 5.78177 12.8154 6.6759C13.065 7.56641 13.0616 8.52625 12.8048 9.41473C12.607 10.1029 12.2575 10.7463 11.7898 11.2884C11.2012 11.9735 10.4242 12.4951 9.56577 12.7769C9.50262 12.8003 9.43051 12.817 9.36608 12.7884C9.29141 12.7582 9.24991 12.6765 9.25055 12.5986C9.24991 12.4664 9.25013 12.3343 9.25034 12.2021C9.24981 12.0966 9.31317 11.9923 9.41024 11.9492C9.45814 11.9291 9.50753 11.9127 9.55542 11.8925C10.2371 11.6181 10.8425 11.1587 11.2926 10.578C11.7112 10.0404 11.9951 9.39852 12.1083 8.72637C12.1936 8.22448 12.1862 7.7069 12.0862 7.20778C11.9622 6.58395 11.6905 5.99074 11.3019 5.48746C10.8273 4.87068 10.1778 4.38937 9.44747 4.11948C9.32714 4.08076 9.24458 3.95382 9.25013 3.8288C9.25045 3.70783 9.25002 3.58697 9.25023 3.46611C9.24629 3.37971 9.29376 3.28615 9.38037 3.25991Z" fill="white" style="fill:white;fill-opacity:1;"/>
<path d="M7.70123 4.71419C7.73398 4.69765 7.77111 4.69264 7.80759 4.69328C7.94296 4.69381 8.07843 4.69285 8.2139 4.69371C8.32036 4.69381 8.41541 4.7879 8.41616 4.89446C8.41733 5.11816 8.41616 5.34185 8.41669 5.56554C8.7397 5.6224 9.05961 5.75532 9.29045 5.99448C9.48065 6.18883 9.60033 6.44432 9.65506 6.70897C9.6781 6.81885 9.58327 6.93032 9.47275 6.93235C9.32298 6.93363 9.17322 6.93277 9.02345 6.93277C8.9332 6.93395 8.85 6.86781 8.82525 6.78194C8.78034 6.6263 8.69735 6.47643 8.56635 6.37722C8.41445 6.26031 8.21988 6.21806 8.03213 6.20729C7.82626 6.19566 7.61184 6.21188 7.42346 6.30212C7.28884 6.36581 7.17406 6.47707 7.12147 6.61798C7.07709 6.73159 7.07517 6.85661 7.08904 6.9763C7.10088 7.07283 7.13576 7.16884 7.20168 7.24191C7.2899 7.34069 7.41407 7.39723 7.53717 7.43958C7.74316 7.50817 7.95853 7.54166 8.17284 7.57206C8.40101 7.60609 8.62865 7.6494 8.84904 7.71863C9.01961 7.77282 9.18698 7.84301 9.33514 7.94457C9.45633 8.02745 9.56289 8.13284 9.64087 8.25765C9.73784 8.41105 9.79 8.58887 9.81208 8.76808C9.83587 8.96777 9.83416 9.1728 9.7836 9.36844C9.71202 9.65603 9.5422 9.91567 9.31434 10.1041C9.06025 10.3164 8.74194 10.4421 8.41669 10.4936C8.41658 10.7043 8.41648 10.9149 8.4168 11.1254C8.41712 11.1603 8.41552 11.1962 8.40176 11.2288C8.37263 11.3048 8.29508 11.3594 8.21348 11.3598C8.07086 11.3601 7.92824 11.3602 7.78561 11.3598C7.70113 11.3591 7.62166 11.3001 7.59509 11.2202C7.58005 11.1796 7.58368 11.1358 7.58336 11.0936C7.58347 10.8936 7.58347 10.6939 7.58336 10.4939C7.22291 10.4456 6.8598 10.3231 6.58511 10.077C6.34851 9.86873 6.1965 9.57698 6.12887 9.27147C6.11682 9.20843 6.09314 9.14261 6.11415 9.07882C6.13879 8.99882 6.21933 8.94047 6.30318 8.94324C6.46393 8.94324 6.62469 8.94249 6.78545 8.94356C6.87665 8.94548 6.95847 9.01695 6.9782 9.10517C7.00743 9.23947 7.05245 9.37302 7.13245 9.4861C7.2131 9.60259 7.33012 9.69134 7.46047 9.74542C7.63403 9.81796 7.82412 9.83983 8.0108 9.84196C8.20783 9.84548 8.40933 9.8091 8.58289 9.71278C8.71698 9.63885 8.83133 9.52493 8.89427 9.38433C8.9412 9.28161 8.95944 9.16736 8.95486 9.05503C8.95123 8.93769 8.92925 8.81619 8.86152 8.71795C8.78311 8.60285 8.65596 8.53351 8.5288 8.48497C8.34042 8.41457 8.14179 8.37713 7.94402 8.34384C7.70742 8.3112 7.47135 8.26981 7.24211 8.20197C7.05917 8.14735 6.87932 8.07545 6.71995 7.969C6.58255 7.87779 6.46329 7.75725 6.3818 7.61335C6.26947 7.41739 6.22808 7.18879 6.22413 6.9652C6.21731 6.7573 6.25774 6.54726 6.34862 6.35972C6.47332 6.09774 6.69157 5.88716 6.94588 5.75105C7.14344 5.64342 7.36223 5.58026 7.58379 5.54613C7.58304 5.33268 7.58357 5.11922 7.58347 4.90577C7.58112 4.82598 7.62912 4.74811 7.70123 4.71419Z" fill="white" style="fill:white;fill-opacity:1;"/>
</g>
<defs>
<clipPath id="clip0_117_2379">
<rect width="16" height="16" rx="8" fill="white" style="fill:white;fill-opacity:1;"/>
</clipPath>
</defs>
</svg>
