<svg width="91" height="32" viewBox="0 0 91 32" fill="none" xmlns="http://www.w3.org/2000/svg">
<rect x="0.5" y="0.5" width="90" height="31" rx="15.5" fill="#27272A" style="fill:#27272A;fill:color(display-p3 0.1529 0.1529 0.1647);fill-opacity:1;"/>
<rect x="0.5" y="0.5" width="90" height="31" rx="15.5" stroke="#3F3F46" style="stroke:#3F3F46;stroke:color(display-p3 0.2471 0.2471 0.2745);stroke-opacity:1;"/>
<g clip-path="url(#clip0_131_2505)">
<rect width="24" height="24" transform="translate(4 4)" fill="#4473C5" style="fill:#4473C5;fill:color(display-p3 0.2667 0.4510 0.7725);fill-opacity:1;"/>
<path d="M13.7337 8.88923C13.8258 8.86235 13.9329 8.87195 14.0102 8.93243C14.0865 8.99068 14.1233 9.08796 14.1241 9.18189C14.1255 9.36942 14.1239 9.55711 14.1249 9.74464C14.1326 9.93297 14.0073 10.1231 13.8258 10.1802C12.8099 10.5565 11.8977 11.205 11.2036 12.0366C10.5404 12.828 10.0766 13.786 9.87327 14.7989C9.62734 16.009 9.74862 17.2918 10.225 18.4317C10.6 19.3359 11.1921 20.1483 11.9355 20.785C12.4939 21.264 13.137 21.645 13.8271 21.9007C14.0082 21.9583 14.1329 22.1486 14.1249 22.3366C14.1241 22.5238 14.1255 22.7109 14.1242 22.8981C14.1234 22.9918 14.0868 23.0894 14.0105 23.1477C13.9342 23.2077 13.8285 23.2179 13.737 23.192C12.2776 22.7353 10.9711 21.8124 10.0432 20.5976C9.3846 19.7398 8.91513 18.7375 8.68024 17.6816C8.38998 16.3823 8.45063 15.0058 8.85977 13.7385C9.14107 12.8645 9.58605 12.0437 10.1635 11.3299C11.0812 10.1912 12.3377 9.3275 13.7337 8.88923Z" fill="white" style="fill:white;fill-opacity:1;"/>
<path d="M18.0706 8.88987C18.1373 8.86747 18.2104 8.87211 18.2771 8.89227C19.3079 9.21917 20.2645 9.77536 21.0615 10.5056C22.0895 11.4438 22.8497 12.6727 23.223 14.0139C23.5975 15.3496 23.5923 16.7894 23.2072 18.1221C22.9105 19.1543 22.3862 20.1195 21.6847 20.9327C20.8018 21.9603 19.6363 22.7427 18.3487 23.1653C18.2539 23.2005 18.1458 23.2254 18.0491 23.1826C17.9371 23.1373 17.8749 23.0147 17.8758 22.8979C17.8749 22.6997 17.8752 22.5014 17.8755 22.3032C17.8747 22.1449 17.9698 21.9884 18.1154 21.9238C18.1872 21.8937 18.2613 21.869 18.3331 21.8388C19.3556 21.4271 20.2638 20.7381 20.9389 19.867C21.5668 19.0606 21.9927 18.0978 22.1625 17.0896C22.2903 16.3367 22.2793 15.5603 22.1294 14.8117C21.9433 13.8759 21.5357 12.9861 20.9528 12.2312C20.2409 11.306 19.2666 10.5841 18.1712 10.1792C17.9907 10.1211 17.8669 9.93073 17.8752 9.7432C17.8757 9.56175 17.875 9.38046 17.8753 9.19917C17.8694 9.06956 17.9406 8.92923 18.0706 8.88987Z" fill="white" style="fill:white;fill-opacity:1;"/>
<path d="M15.5519 11.0713C15.601 11.0465 15.6567 11.039 15.7114 11.0399C15.9144 11.0407 16.1176 11.0393 16.3209 11.0406C16.4805 11.0407 16.6231 11.1818 16.6242 11.3417C16.626 11.6772 16.6242 12.0128 16.625 12.3483C17.1095 12.4336 17.5894 12.633 17.9357 12.9917C18.221 13.2833 18.4005 13.6665 18.4826 14.0635C18.5171 14.2283 18.3749 14.3955 18.2091 14.3985C17.9845 14.4004 17.7598 14.3992 17.5352 14.3992C17.3998 14.4009 17.275 14.3017 17.2379 14.1729C17.1705 13.9395 17.046 13.7146 16.8495 13.5658C16.6217 13.3905 16.3298 13.3271 16.0482 13.3109C15.7394 13.2935 15.4178 13.3178 15.1352 13.4532C14.9333 13.5487 14.7611 13.7156 14.6822 13.927C14.6156 14.0974 14.6128 14.2849 14.6336 14.4644C14.6513 14.6093 14.7036 14.7533 14.8025 14.8629C14.9349 15.011 15.1211 15.0958 15.3058 15.1594C15.6147 15.2623 15.9378 15.3125 16.2593 15.3581C16.6015 15.4091 16.943 15.4741 17.2736 15.5779C17.5294 15.6592 17.7805 15.7645 18.0027 15.9168C18.1845 16.0412 18.3443 16.1993 18.4613 16.3865C18.6068 16.6166 18.685 16.8833 18.7181 17.1521C18.7538 17.4517 18.7512 17.7592 18.6754 18.0527C18.568 18.484 18.3133 18.8735 17.9715 19.1561C17.5904 19.4747 17.1129 19.6632 16.625 19.7404C16.6249 20.0565 16.6247 20.3723 16.6252 20.6882C16.6257 20.7405 16.6233 20.7943 16.6026 20.8432C16.559 20.9571 16.4426 21.0391 16.3202 21.0397C16.1063 21.0402 15.8924 21.0404 15.6784 21.0397C15.5517 21.0386 15.4325 20.9501 15.3926 20.8303C15.3701 20.7695 15.3755 20.7037 15.375 20.6403C15.3752 20.3405 15.3752 20.0408 15.375 19.7409C14.8344 19.6684 14.2897 19.4846 13.8777 19.1154C13.5228 18.8031 13.2948 18.3655 13.1933 17.9072C13.1752 17.8126 13.1397 17.7139 13.1712 17.6182C13.2082 17.4982 13.329 17.4107 13.4548 17.4149C13.6959 17.4149 13.937 17.4137 14.1782 17.4153C14.315 17.4182 14.4377 17.5254 14.4673 17.6578C14.5111 17.8592 14.5787 18.0595 14.6987 18.2291C14.8196 18.4039 14.9952 18.537 15.1907 18.6181C15.451 18.7269 15.7362 18.7597 16.0162 18.7629C16.3117 18.7682 16.614 18.7137 16.8743 18.5692C17.0755 18.4583 17.247 18.2874 17.3414 18.0765C17.4118 17.9224 17.4392 17.751 17.4323 17.5825C17.4268 17.4065 17.3939 17.2243 17.2923 17.0769C17.1747 16.9043 16.9839 16.8003 16.7932 16.7275C16.5106 16.6219 16.2127 16.5657 15.916 16.5158C15.5611 16.4668 15.207 16.4047 14.8632 16.303C14.5888 16.221 14.319 16.1132 14.0799 15.9535C13.8738 15.8167 13.6949 15.6359 13.5727 15.42C13.4042 15.1261 13.3421 14.7832 13.3362 14.4478C13.326 14.1359 13.3866 13.8209 13.5229 13.5396C13.71 13.1466 14.0374 12.8307 14.4188 12.6266C14.7152 12.4651 15.0433 12.3704 15.3757 12.3192C15.3746 11.999 15.3754 11.6788 15.3752 11.3587C15.3717 11.239 15.4437 11.1222 15.5519 11.0713Z" fill="white" style="fill:white;fill-opacity:1;"/>
</g>
<rect x="4.5" y="4.5" width="23" height="23" rx="11.5" stroke="white" stroke-opacity="0.08" style="stroke:white;stroke-opacity:0.08;"/>
<path d="M40.83 21.196C38.086 21.196 36.924 19.754 36.924 17.598V10.99H38.464V17.598C38.464 19.152 39.248 19.866 40.83 19.866C42.426 19.866 43.196 19.152 43.196 17.598V10.99H44.75V17.598C44.75 19.754 43.588 21.196 40.83 21.196ZM50.4397 21.196C47.9057 21.196 46.1277 19.88 46.0157 17.626H47.6117C47.7237 18.97 48.5217 19.88 50.3977 19.88C52.0077 19.88 52.4977 19.18 52.4977 18.27C52.4977 16.996 51.5177 16.814 49.6977 16.352C48.1297 15.932 46.4077 15.428 46.4077 13.524C46.4077 11.788 47.7517 10.794 49.9077 10.794C52.1897 10.794 53.6737 11.956 53.8277 13.972H52.2317C52.0637 12.768 51.3777 12.11 49.9217 12.11C48.6617 12.11 48.0177 12.572 48.0177 13.44C48.0177 14.56 49.0677 14.798 50.3557 15.12C52.2877 15.61 54.1077 16.072 54.1077 18.186C54.1077 19.908 52.9457 21.196 50.4397 21.196ZM55.5194 21V10.99H59.3274C62.0994 10.99 63.7794 12.782 63.7794 16.002C63.7794 19.222 62.1274 21 59.3554 21H55.5194ZM57.0594 19.67H59.2574C61.5814 19.67 62.1834 17.934 62.1834 16.002C62.1834 14.07 61.5814 12.32 59.2574 12.32H57.0594V19.67ZM69.4945 21.196C66.6525 21.196 64.8185 19.012 64.8185 16.002C64.8185 12.978 66.6665 10.794 69.5085 10.794C72.0145 10.794 73.5685 12.39 73.8065 14.392H72.1965C72.0145 13.412 71.3985 12.124 69.4805 12.124C67.2685 12.124 66.4285 14 66.4285 15.988C66.4285 17.99 67.2685 19.866 69.4805 19.866C71.4125 19.866 72.0985 18.578 72.1965 17.36H73.8065C73.5825 19.586 72.0145 21.196 69.4945 21.196Z" fill="#FAFAFA" style="fill:#FAFAFA;fill:color(display-p3 0.9804 0.9804 0.9804);fill-opacity:1;"/>
<defs>
<clipPath id="clip0_131_2505">
<rect x="4" y="4" width="24" height="24" rx="12" fill="white" style="fill:white;fill-opacity:1;"/>
</clipPath>
</defs>
</svg>
